/* XPM */
static char *_157c3f4ff7a4b80b3b105f3b0e7c009LgoqEA0fXGtr3Zxw[] = {
/* columns rows colors chars-per-pixel */
"35 35 237 2 ",
"   c #0A0A00",
".  c yellow",
"X  c black",
"o  c black",
"O  c #CFC900",
"+  c #E4DD00",
"@  c black",
"#  c black",
"$  c #D1CA00",
"%  c #D5CF00",
"&  c black",
"*  c #CEC700",
"=  c #CBC500",
"-  c None",
";  c #E1DA00",
":  c #C6BF00",
">  c #CEC700",
",  c #EAE300",
"<  c #DBD400",
"1  c #FFF800",
"2  c #FFF900",
"3  c #FFFA00",
"4  c #FFF700",
"5  c #F7EF00",
"6  c #E2DB00",
"7  c #DBD500",
"8  c #DCD500",
"9  c #DDD600",
"0  c #EDE600",
"q  c #D1CB00",
"w  c #615E00",
"e  c #3F3E00",
"r  c #403E00",
"t  c #3F3D00",
"y  c #535000",
"u  c #BDB700",
"i  c #FFFB00",
"p  c #FFFC00",
"a  c #C7C000",
"s  c #252300",
"d  c black",
"f  c #1C1B00",
"g  c #FFFE00",
"h  c #F9F100",
"j  c #D8D100",
"k  c #C3BC00",
"l  c #AEA800",
"z  c #7D7800",
"x  c #706D00",
"c  c #716E00",
"v  c #868200",
"b  c #AAA500",
"n  c #A7A200",
"m  c #E8E100",
"M  c #E7E000",
"N  c #6B6800",
"B  c #201F00",
"V  c #545100",
"C  c #D3CC00",
"Z  c #F4EC00",
"A  c #F1EA00",
"S  c #F2EA00",
"D  c #CDC700",
"F  c #423F00",
"G  c #161500",
"H  c #444200",
"J  c #D8D200",
"K  c #4D4A00",
"L  c #2F2D00",
"P  c #D6CF00",
"I  c #FCF400",
"U  c #FAF300",
"Y  c #FBF300",
"T  c #FAF200",
"R  c #F8F100",
"E  c #FEF600",
"W  c #D6D000",
"Q  c #313000",
"!  c #383600",
"~  c #4E4C00",
"^  c #2E2D00",
"/  c #D4CD00",
"(  c #7D7900",
")  c #8C8800",
"_  c #959000",
"`  c #8F8B00",
"'  c #908B00",
"]  c #8A8600",
"[  c #888500",
"{  c #898500",
"}  c #848000",
"|  c #7E7A00",
" . c #7C7800",
".. c #7B7800",
"X. c #7A7600",
"o. c #787400",
"O. c #7C7900",
"+. c #D5CE00",
"@. c #323000",
"#. c #393700",
"$. c #9B9600",
"%. c #070700",
"&. c #030300",
"*. c #010100",
"=. c #020200",
"-. c #060600",
";. c #A29D00",
":. c #090900",
">. c #242300",
",. c #1E1D00",
"<. c #080800",
"1. c #8E8900",
"2. c #BCB600",
"3. c #B9B300",
"4. c #8C8700",
"5. c #888400",
"6. c #D2CC00",
"7. c #2B2900",
"8. c #A09B00",
"9. c yellow",
"0. c #888300",
"q. c #2C2A00",
"w. c #E9E100",
"e. c #C8C200",
"r. c #C4BE00",
"t. c #2F2E00",
"y. c #989300",
"u. c #191800",
"i. c #1A1900",
"p. c #302F00",
"a. c #FDF500",
"s. c #928E00",
"d. c #4F4C00",
"f. c #5C5900",
"g. c #8D8900",
"h. c #FCF500",
"j. c #9C9800",
"k. c #5B5800",
"l. c #A19C00",
"z. c #A19B00",
"x. c #2A2800",
"c. c #282600",
"v. c #8F8A00",
"b. c #8E8A00",
"n. c #999500",
"m. c #918D00",
"M. c #E2DA00",
"N. c #4E4B00",
"B. c #918C00",
"V. c #E1DA00",
"C. c #8C8900",
"Z. c #4D4B00",
"A. c #898600",
"S. c #BCB700",
"D. c #252400",
"F. c #E4DD00",
"G. c #2E2C00",
"H. c #202000",
"J. c #898400",
"K. c #868300",
"L. c #E3DC00",
"P. c #575400",
"I. c #2D2B00",
"U. c #D3CD00",
"Y. c #0A0A00",
"T. c #858100",
"R. c #D4CE00",
"E. c #302E00",
"W. c #E5DE00",
"Q. c #2C2B00",
"!. c #040400",
"~. c #020100",
"^. c #787500",
"/. c #E8E000",
"(. c #5D5900",
"). c #A49F00",
"_. c #ACA600",
"`. c #ADA800",
"'. c #ACA700",
"]. c #B0AA00",
"[. c #B3AE00",
"{. c #AFA900",
"}. c #AEA900",
"|. c #B1AC00",
" X c #A8A300",
".X c #9F9A00",
"XX c #A5A000",
"oX c #A39E00",
"OX c #CBC400",
"+X c #D1CA00",
"@X c #282700",
"#X c #353400",
"$X c #DAD300",
"%X c #FFFD00",
"&X c #D7D000",
"*X c #373500",
"=X c #EDE500",
"-X c #797600",
";X c #CFC800",
":X c #CEC700",
">X c #CEC800",
",X c #D0C900",
"<X c #5E5B00",
"1X c #1B1A00",
"2X c #4B4900",
"3X c #DAD400",
"4X c #DED700",
"5X c #1F1E00",
"6X c #222000",
"7X c #262400",
"8X c #B8B300",
"9X c #B8B200",
"0X c #EEE600",
"qX c #131200",
"wX c #EFE700",
"eX c #676400",
"rX c #3E3D00",
"tX c #424000",
"yX c #4C4A00",
"uX c #3E3C00",
"iX c #3A3800",
"pX c #2B2A00",
"aX c #3A3900",
"sX c #363400",
"dX c #363500",
"fX c #383700",
"gX c #323100",
"hX c #3C3B00",
"jX c #DCD600",
"kX c #E1DB00",
"lX c #DBD400",
"zX c #D9D200",
"xX c #D5CF00",
"cX c #D9D300",
"vX c #D7D100",
"bX c #ECE500",
"nX c white",
/* pixels */
"  o O 1 1 2 3 3 3 3 3 3 3 3 3 3 3 3 3 3 3 3 3 3 3 3 3 3 3 3 1 4 + . X ",
"@ # $ 1 5 6 7 8 8 8 8 8 8 8 8 8 8 8 8 8 8 8 8 8 8 8 8 8 8 9 0 1 % & o ",
"* = - 3 q w e r r r r r r r r r r r r r r r r r r r r r t y u i ; : > ",
"1 1 3 p a s d d d d d d d d d d d d d d d d d d d d d d d f u g p 2 1 ",
"1 h j k l z x c c c c c c c c c c c c c c c c c c c c c c x v b n m 2 ",
"2 M N B V C Z A A A A A A A A A A A A A A A A S A A A A Z D F G H J 3 ",
"2 6 K d L P i I h U Y Y Y T T T T T h h h h h R h h h E i W Q d ! J 3 ",
"2 6 ~ d ^ / 4 u ( ) _ ` ' ] [ { { } |  . ...X.o.X.| O.D 1 +.@.d #.j 3 ",
"2 6 ~ d ^ / E $.%.&.*.*.*.d d d d d d d d d d d d =.-.] I +.Q d #.j 3 ",
"2 6 ~ d ^ / 4 ;.&.:.B >.>.>.>.>.>.>.>.>.>.>.>.>.,.<.&.] I / ^ d #.j 3 ",
"2 6 ~ d ^ / 4 ;.=.B 1.2.3.3.3.3.3.3.3.3.3.3.3.2.4.,.*.5.I 6.7.d #.j 3 ",
"2 6 ~ d ^ / E 8.*.>.2.9.p p p p p p p p p p p 9.2.>.d 0.I C q.d #.j 3 ",
"2 6 ~ d ^ / E 8.*.>.3.p w.e.r.r.r.r.r.r.r.a 6 p 3.>.d { I / t.d #.j 3 ",
"2 6 ~ d ^ / E y.*.>.3.p e.@.u.i.i.i.i.i.u.Q a p 3.>.d 5.I +.p.d #.j 3 ",
"2 6 ~ d ^ / a.' *.>.3.p r.u.d *.d d d =.d u.r.p 3.>.d ] I +.p.d #.j 3 ",
"2 6 ~ d ^ / a.s.*.>.3.p r.i.*.>.d.~ ~ q.&.i.r.p 3.>.*.` a.+.p.d #.j 3 ",
"2 6 ~ d ^ / E y.*.>.3.p r.i.d d.p 2 i f.d i.r.p 3.>.*.g.h.+.p.d #.j 3 ",
"2 6 ~ d ^ / E j.*.>.3.p r.i.d ~ 2 4 2 k.d i.r.p 3.>.d { I +.p.d #.j 3 ",
"2 6 ~ d ^ / 4 l.*.>.3.p r.i.d ~ i 2 i f.d i.r.p 3.>.*.1.I +.p.d #.j 3 ",
"2 6 ~ d ^ / E z.*.>.3.p r.i.*.x.f.k.k.c.*.i.r.p 3.>.*.v.a.+.p.d #.j 3 ",
"2 6 ~ d ^ / E 8.*.>.3.p r.u.d =.d d d *.d u.r.p 3.>.*.b.h.+.p.d #.j 3 ",
"2 6 ~ d ^ / E n.*.>.3.p a Q u.i.i.i.i.i.u.@.e.p 3.>.*.m.a.+.p.d #.j 3 ",
"2 M.N.d ^ / a.B.*.>.3.p V.a r.r.r.r.r.r.r.e.M p 3.>.*.C.I +.p.d #.j 3 ",
"2 V.Z.d L / I A.d >.2.9.p p p p p p p p p p p 9.S.D.d 5.I +.p.d #.j 3 ",
"2 F.V d G./ I ) *.H.b.2.3.3.3.3.3.3.3.3.3.3.3.S.J.f *.K.I +.p.d #.j 3 ",
"2 L.P.*.I.U.a.1.&.Y.H.>.>.>.>.>.>.>.>.>.>.>.>.D.f -.&.T.I R.E.d #.j 3 ",
"2 W.f.=.Q.C I T.%.!.=.~.~.=.&.-.~.=.=.*.*.*.*.*.=.!.%.^.T 6.7.d #.j 3 ",
"2 /.(.d p.+.4 D )._.`.`.'.].[.{.}.|.[. X8..Xl.XXoXoXXXOX4 +X@Xd #.j 3 ",
"2 m f.d #X$X%X1 4 1 1 1 1 1 2 1 1 2 2 1 4 4 4 4 4 4 4 1 %X&XE.d *Xj 3 ",
"2 =X| Q -Xe.;X:X:XD D D D D D D D D D D D D D D D >X,X+X+.e.<X1X2X3X3 ",
"4 h 4X3X:Xd.5XB B B B B B B B B B B B B B B B B 5X6X7X@XQ.K b.8X9X0X1 ",
"4 1 2 3 F.p.d d d d d d d d d d d d d d d d d d d d d d d qXoXg i 1 4 ",
"+ % ; 2 wXeXrXtXyXZ.Z.Z.yXuXiXQ t.pXq.G.#XaXsXdXdX#X#XfXgXhX`.i , < + ",
". & : 1 I 6 8 jXV.kXkXkXV.lXzXxX/ 6.C U.&XcX&X&XvX&X&Xj P xXbX1 < . . ",
"X o > 1 4 2 3 3 2 2 2 2 2 3 3 3 3 3 3 3 3 3 3 3 3 3 3 3 3 3 1 4 + . X "
};
