/* XPM */
static char *c9a8cb0fc03345c5cfe276152ad72fcfTLzEUEXP03pdLbLV[] = {
/* columns rows colors chars-per-pixel */
"40 40 175 2 ",
"   c None",
".  c #5E1576",
"X  c #640E76",
"o  c #6B047E",
"O  c #66097B",
"+  c #69087B",
"@  c #76067E",
"#  c #601171",
"$  c #6C127B",
"%  c #6D0480",
"&  c #6E0288",
"*  c #720583",
"=  c #740A82",
"-  c #76038A",
";  c #780789",
":  c #790A8A",
">  c #6F1180",
",  c #761481",
"<  c #791285",
"1  c #761F80",
"2  c #7C1F8B",
"3  c #7E0693",
"4  c #752080",
"5  c #81118D",
"6  c #80198D",
"7  c #810795",
"8  c #800893",
"9  c #8A0896",
"0  c #83049B",
"q  c #86099D",
"w  c #8C0B9E",
"e  c #99079B",
"r  c #93099B",
"t  c #861293",
"y  c #891097",
"u  c #801B90",
"i  c #8D129B",
"p  c #891A9D",
"a  c #91159E",
"s  c #8704A0",
"d  c #8D04A6",
"f  c #8C09A1",
"g  c #8E05AF",
"h  c #8D09AD",
"j  c #9406A4",
"k  c #9109A4",
"l  c #9C08A3",
"z  c #9104AB",
"x  c #9A05AE",
"c  c #9609AA",
"v  c #9D0AAC",
"b  c #9412A2",
"n  c #9B17A5",
"m  c #9617A9",
"M  c #9B14AB",
"N  c #9504B1",
"B  c #9F00B3",
"V  c #9C0CB2",
"C  c #9F19B5",
"Z  c #A016AB",
"A  c #A302B7",
"S  c #A20EB5",
"D  c #A601BB",
"F  c #A801BA",
"G  c #AC0FBD",
"H  c #B40FBD",
"J  c #A112B2",
"K  c #A41AB4",
"L  c #A612BB",
"P  c #AE13BD",
"I  c #AB1ABA",
"U  c #A821B7",
"Y  c #AC26BF",
"T  c #AE0DC3",
"R  c #B109C5",
"E  c #BA0DC6",
"W  c #B606CD",
"Q  c #BA05CF",
"!  c #B30DC9",
"~  c #BA0DCD",
"^  c #AD14C1",
"/  c #B411C4",
"(  c #B01BC0",
")  c #B516CA",
"_  c #BA12CC",
"`  c #B904D1",
"'  c #BD0BD3",
"]  c #BF06D8",
"[  c #BD13D4",
"{  c #C204D5",
"}  c #C10AD5",
"|  c #CC0AD4",
" . c #C405DB",
".. c #CE05DD",
"X. c #C40ADB",
"o. c #CC0ADB",
"O. c #C011D3",
"+. c #C11FD4",
"@. c #C513DC",
"#. c #CD10DB",
"$. c #C603E2",
"%. c #CD03E4",
"&. c #C308E3",
"*. c #CD0AE3",
"=. c #CE03EA",
"-. c #CF09EE",
";. c #D303E5",
":. c #DB03E4",
">. c #D109E5",
",. c #D303EC",
"<. c #DC03EC",
"1. c #D20BEA",
"2. c #DA0AEE",
"3. c #DB11EF",
"4. c #C705F3",
"5. c #CC05F3",
"6. c #C608F3",
"7. c #D502F2",
"8. c #DC00F6",
"9. c #DF00F6",
"0. c #DC03F7",
"q. c #DE04F7",
"w. c #DB01F4",
"e. c #D308F0",
"r. c #D309F0",
"t. c #D303F8",
"y. c #D403F8",
"u. c #D501FB",
"i. c #D307F8",
"p. c #D305FB",
"a. c #D501FC",
"s. c #D403FC",
"d. c #D404FA",
"f. c #DB00F9",
"g. c #D803F9",
"h. c #DB03FA",
"j. c #DD01F9",
"k. c #DF01F8",
"l. c #DF03F9",
"z. c #DE00FA",
"x. c #DF00FA",
"c. c #DE01FB",
"v. c #DD02FA",
"b. c #DF03FA",
"n. c #DE01F9",
"m. c #E002EB",
"M. c #E002EB",
"N. c #E002F7",
"B. c #E700F7",
"V. c #E301F6",
"C. c #E003F8",
"Z. c #E101FA",
"A. c #E301FA",
"S. c #E003FB",
"D. c #E202FA",
"F. c #E700F8",
"G. c #E701F9",
"H. c #E100FC",
"J. c #E000FD",
"K. c #E301FC",
"L. c #E300FD",
"P. c #E501FF",
"I. c #E701FF",
"U. c #E301FB",
"Y. c #EA00F8",
"T. c #E801FE",
"R. c #E800FF",
"E. c #EB00FE",
"W. c #ED00FF",
"Q. c #EC01FE",
"!. c #E30AFB",
"~. c #E109FA",
"^. c #F000FF",
"/. c #F000FF",
"(. c #E514FA",
/* pixels */
"o o 3 3 - o i f k k w y t t t t w x D A 8 % 2   < % = d g h k j e e e e r f 3 % ",
"3 W ,...{ Q *.%.%.%.%...X.X.X.' X.,.F.Y.2.M %   * % [ ,.y.7.,.,.%.%.%.%.=.=. .% ",
"q =.T.<.<.b.q.8.b.J.J.9.8.8.8.>.*.w.Q.^.!.L % % % b 1.P.T.B.9.8.t.5.t.y.g.D.F.z ",
"f =.b.,.,.7.w.7.8.D.b.9.b.J.b.,.%.,.8.g.7.' c 3 j W 7.N.m.:.,.-.5.6.4.5.7.<.<.N ",
"r %.g.5.y.,.*.,.,.,.,.,.b.P.T.D.8.7.y.y.7.,.,.,.=.=.,.>.| | *.e.i.i.a.y.7.;.;.z ",
"e %.t.5.a.b. .b.9.V c T { ,.D.D.b.9.7.7.7.,.,.%.] R S M n Z G X.7.b.J.b.,.{ R % ",
"e %.t.4.a.J.7.b.] % % % * L @.1.8.b.8.,.>.} j * % % % % % % = v ..<.9.<.o.,. .% ",
"9 W $.&.-.,...E b %   + % > Y @.,.,.,.*.@.I =               % * H o...#._ 8.,.q ",
"k $.7.{ ..} l @ *       o % p ^ ~ E G J K i =                 % a P ' ,.8.7.%.f ",
"k ,.9.,.*.P = %             % % % % % % % % = : ; % % %         % % A b.,.,.%.k ",
"h 7.B.:.| Z %                               < C T ~ [ m %         * V ,.b.D.$.i ",
"g y.T.m.| n %       % % % % %               % U _ X.*./ %       # X V  .%.%. .i ",
"d ,.P.N.>.M %     % m ) ' $.[ =             * ( { %.3.` %     O X $ ! %.%.7. .t ",
"= [ 1.7.,.S %     % [ 1.2.Q.(.5             u +.,.D.Q.$.%   . % $ M  .9.b.8.{ t ",
"% % b W =.R %     % ~ X.%.D.1.=             4 Y O.>.(.[ &   % p Y @.b.P.9.8.X.t ",
"  * % j =.] %     : T _ } ,.O.%               * * = 5 =     * ^ @.1.b.D.,.>.' 6 ",
"    % 3 ,.%.*     : K K ( +.Y %                             % ~ ,.8.b.8.%.*.X.w ",
"  % % c ,.,.j = = = , % % u 4                               % E ,.b.9.7.,.w.,.x ",
"% M L ' ,.,.} I i %                                         % G ,.8.7.y.8.Q.F.D ",
"7 1.!.7.7.7.>.@.K %                                         % J *.,.7.y.g.^.Y.A ",
"B <.V.7.y.7.,.*.J *                                         % K @.>.7.7.7.!.2.8 ",
"F F.T.8.y.7.8.;.G %                                         % i I } ,.,.' L M % ",
"c ,.w.,.7.9.b.,./ %                               4 u % % , = = = j ,.,.c % %   ",
"u ) *.%.8.b.8.,.~ %                             % Y +.( K K :     * %.,.3 %     ",
"6 ' >.,.D.b.1.@.^ *     % 5 = % %               % O.,.} _ / :     % ] =.j % * < ",
"t X.8.9.P.b.@.Y p %   % [ (.1.O.Y 4             = 1.D.%. .~ %     % R =.W b % % ",
"t { 8.b.9. .M $ %     % $.Q.D.,.+.u             5 (.Q.<.1.[ %     % S ,.7.1.[ = ",
"t  .7.%.%.! $ X O     % ' 2.%.} ( %             % [ $.' ) m %     % M >.N.P.,.d ",
"i  .%.%. .V X #       % ) 1.X._ K %               % % % % %       % n | m.T.y.g ",
"i $.D.8.7.` *         % m [ ~ T K ,                               % Z | :.B.7.h ",
"k %.7.8.8.` % %         % % % : : = % % * % % % * %             % = P *.,.9.,.k ",
"f %.8.8.8.} P a %                 = i K J G / ~ ^ p % O       % * v X.e.-.8.,.j ",
"q $.8.7.>...o.H * %               = I @.*.;.,.,.@.Y $ X #   % a H o.7.i.5.t.%.e ",
"o ` 7.*.<.9.<.o.v = % % % % % % * j } >.,.8.b.8.1.@.M $ X * % P o.<.b.i.6.5.%.e ",
"% R  .,.b.J.b.7.X.P Z n M S R ] %.,.,.7.7.7.9.b.b.b. .! V S D ~ ..9.J.a.4.t.%.e ",
"3 ;.;.7.y.a.i.i.e.*.| | >.,.=.=.,.,.,.7.y.y.7.8.D.P.9.%. .,.7.7.,.<.b.y.5.y.%.e ",
"0 <.<.7.5.4.6.5.-.,.:.m.N.7.W j 3 c ' 7.7.8.,.%.,.9.b.%.%.7.7.7.7.,.,.7.7.g.=.r ",
"0 F.D.g.y.t.5.t.8.9.B.T.P.1.b % % % L !.V.T.w.*.>.8.8.7.%.b.7.7.7.7.%.;.<.D.=.f ",
"o  .=.=.%.%.%.%.,.,.7.y.,.[ % *   % M 1.<.F.,.) ' X.{  . .$.%.=.%. .W ;.<.F. .3 ",
"% 3 f r e e e e j k h g d = %       % 7 B F c u 6 t t t i i k q * % % - 3 0 % % "
};
