/* XPM */
static char *_b773819aae24ed6b0e3f2898a7728e2pkEEy5xs7UuiaAlz[] = {
/* columns rows colors chars-per-pixel */
"35 35 116 2 ",
"   c black",
".  c #201F00",
"X  c #434000",
"o  c #413E00",
"O  c #423E00",
"+  c #111000",
"@  c #817A00",
"#  c #FFFC00",
"$  c #FFF400",
"%  c #FFF700",
"&  c #7C7600",
"*  c #FFFA00",
"=  c #FFF200",
"-  c #504C00",
";  c #A59C00",
":  c #A09800",
">  c #9D9500",
",  c #CFC500",
"<  c #FFF500",
"1  c #837C00",
"2  c yellow",
"3  c #FFF900",
"4  c #FFF300",
"5  c #6C6700",
"6  c #DFD400",
"7  c #D8CD00",
"8  c #D7CC00",
"9  c #ECE000",
"0  c #F0E400",
"q  c #D9CE00",
"w  c #F9EC00",
"e  c #E2D600",
"r  c #030300",
"t  c #060600",
"y  c #827C00",
"u  c #FFF800",
"i  c #A29A00",
"p  c #0C0B00",
"a  c #454200",
"s  c #010100",
"d  c #7B7500",
"f  c #403D00",
"g  c #847D00",
"h  c #807900",
"j  c #BFB600",
"k  c #FFF600",
"l  c #7D7600",
"z  c #FCEF00",
"x  c #131200",
"c  c #282600",
"v  c #272500",
"b  c #201E00",
"n  c #938B00",
"m  c #7E7800",
"M  c #302D00",
"N  c #625D00",
"B  c #5F5A00",
"V  c #605B00",
"C  c #514D00",
"Z  c #020200",
"A  c #DBD000",
"S  c #9F9700",
"D  c #E7DB00",
"F  c #FFFB00",
"G  c #DED300",
"H  c #BCB300",
"J  c #BDB400",
"K  c #7F7900",
"L  c #060500",
"P  c #BEB500",
"I  c #BEB400",
"U  c #EEE200",
"Y  c #121100",
"T  c #0B0B00",
"R  c #898200",
"E  c #181700",
"W  c #F3E700",
"Q  c #FEF100",
"!  c #FAED00",
"~  c #EFE300",
"^  c #3C3900",
"/  c #F6E900",
"(  c #EDE100",
")  c #242200",
"_  c #FFF100",
"`  c #C3B900",
"'  c #100F00",
"]  c #050500",
"[  c #2A2800",
"{  c #F3E600",
"}  c #FFFD00",
"|  c #948D00",
" . c #A39A00",
".. c #777100",
"X. c #F9ED00",
"o. c #2C2A00",
"O. c #212000",
"+. c #DED200",
"@. c #040400",
"#. c #2B2900",
"$. c #1A1900",
"%. c #9C9400",
"&. c #FDF000",
"*. c #AEA500",
"=. c #211F00",
"-. c #5B5600",
";. c #DBD001",
":. c #0A0904",
">. c #807A00",
",. c #373500",
"<. c #030302",
"1. c #3F3C00",
"2. c #0A0900",
"3. c #433F00",
"4. c #413D00",
"5. c white",
/* pixels */
"                                                                      ",
"                    . X o o o o o o o o o o o o o o o o o o o o O +   ",
"                    @ # $ $ $ $ $ $ $ $ $ $ $ $ $ $ $ $ $ $ $ $ % O   ",
"                    & * = = = = = = = = = = = = = = = = = = = = $ o   ",
"      - ; : : : : > , < = = = = = = = = = = = = = = = = = = = = $ o   ",
"      1 2 3 3 3 3 3 < = = = = = = = = = = = = = = = = = = = = = $ o   ",
"      @ # $ $ $ $ $ 4 = = = = 4 4 $ $ $ = = = = = = 4 $ $ 4 = = $ o   ",
"      5 6 7 7 7 7 8 9 4 = = = 4 0 8 7 q w = = = = = e 8 8 e = = $ o   ",
"      r t t t t t   y 3 = = = u i   t p q $ = = = $ a s s a $ = $ o   ",
"                    d * = = = 3 :     t 7 $ = = = $ o     o $ = $ o   ",
"      f g h h h h d j k = = = 3 :     t 7 $ = = = $ o     o $ = $ o   ",
"      g 2 * * * * * k = = = = 3 :     t 7 $ = = = $ o     o $ = $ o   ",
"      l $ w w w w w z = = = = u i   t p q $ = = = $ a s s a $ = $ o   ",
"      x c v v v v b n u = = = 4 0 8 7 q w = = = = = e 8 8 e = = $ o   ",
"                    m * = = = = 4 $ $ $ = = = = = = 4 $ $ 4 = = $ o   ",
"                    h * = = = = < 3 3 3 3 3 3 3 3 3 $ = = = = = $ o   ",
"      M N B V C Z   h * = = = $ A > : : : : : : : S D $ = = = = $ o   ",
"      1 2 3 F G t   h * = = = 3 >                   H % = = = = $ o   ",
"      h * = $ 7 t   h * = = = 3 S                   J k = = = = $ o   ",
"      K * = $ 7 L   h * = = = $ D H P I I I I I I J U 4 = = = = < o   ",
"r Y T R 3 = $ A E p h W 9 U Q = $ % % k k k k k k k 4 = = ! 9 9 ~ ^   ",
"v D 9 / 4 = = z ( W h p Y ) U = _ = = = = = = = = = = = % ` ' x x ]   ",
"[ w = = = = = = = * h     x { 3 3 3 3 3 3 3 3 3 3 3 3 3 } `           ",
"[ w = = = = = = = * h     p | : : : : : : : : : : : : :  ...          ",
"[ w = = = = = = = * h                                                 ",
"[ w = = = = = = = * h                                                 ",
"[ w = = = = = Q X.$ K   t t t t t t t t t t t t t t t t t t t r       ",
"[ w = = = = $ G o.O.h +.7 7 7 7 7 7 7 7 7 7 7 7 7 7 7 7 7 7 6 5       ",
"[ w = = = = $ 7 @.  h # $ $ $ $ $ $ $ $ $ $ $ $ $ $ $ $ $ $ # @       ",
"#.4 3 < = = $ 7 t   h * = = = = = = = = u 3 3 k = = = = = = * h       ",
"$.%.> , < = $ 7 t   h * = = = = = = = &.*.S > ` $ = = = = = * h       ",
"      & * = $ 7 L   h * = = = = = = = w =.    -.3 = = = = = * h       ",
"      @ # $ k ;.:.  @ # $ $ $ $ $ $ $ z v     V F $ $ $ < $ # >.      ",
"      . X o o ,.<.  . X o o o o o o o 1.2.    E 3.o o o o 4.X .       ",
"                                                                      "
};
